<svg width="25" height="25" fill="none" xmlns="http://www.w3.org/2000/svg">
<style>
path{
  fill:#13171a;
  fill:color(display-p3 .0745 .0902 .102);
  fill-opacity:1;
  stroke:#13171a;
  stroke:color(display-p3 .0745 .0902 .102);
  stroke-opacity:1
}
</style>
  <path fill-rule="evenodd" clip-rule="evenodd" d="M11.032 1.2c0-.644.522-1.166 1.167-1.166h4.965c.645 0 1.167.522 1.167 1.167v1.663c0 .644.523 1.167 1.167 1.167h4.672c.645 0 1.167.522 1.167 1.167v4.17c0 .645-.522 1.167-1.167 1.167h-1.663c-.644 0-1.167.523-1.167 1.167v4.966c0 .644.523 1.167 1.167 1.167h1.663c.645 0 1.167.522 1.167 1.167v4.17c0 .645-.522 1.167-1.167 1.167H5.193a1.167 1.167 0 0 1-1.167-1.166v-4.171c0-.645-.523-1.167-1.167-1.167H1.196a1.167 1.167 0 0 1-1.167-1.167v-4.966c0-.644.522-1.167 1.167-1.167h1.663c.644 0 1.167-.522 1.167-1.167v-4.17c0-.645.522-1.167 1.167-1.167h4.672c.644 0 1.167-.523 1.167-1.167V1.2Z" fill="#7E858B" style="fill:color(display-p3 .4941 .5216 .5451);fill-opacity:1"/><path d="M11.812 7.583v-.1h-.1c-1.004 0-1.805.27-2.389.818l.069.073-.069-.073c-.588.552-.873 1.402-.873 2.528v5.886c0 1.125.285 1.975.873 2.528.584.55 1.385.818 2.389.818h.1V18.867l-.098-.002c-.66-.015-1.138-.21-1.448-.569-.312-.362-.478-.912-.478-1.675v-5.695c0-.763.165-1.316.478-1.678.311-.36.788-.553 1.448-.57l.098-.002V7.583ZM15.502 7.583v-.1h-.1c-1.004 0-1.804.27-2.389.818-.59.552-.874 1.402-.874 2.528v5.886c0 1.125.286 1.975.874 2.528.585.55 1.385.818 2.389.818h.1V18.867l-.098-.002c-.66-.015-1.137-.21-1.448-.569-.313-.362-.478-.912-.478-1.675v-5.695c0-.765.155-1.316.472-1.677.317-.36.794-.55 1.455-.57l.097-.004V7.583ZM19.19 7.583v-.1h-.1c-1.002 0-1.802.27-2.387.818-.589.552-.874 1.402-.874 2.528v5.886c0 1.125.285 1.975.874 2.528.586.55 1.386.818 2.387.818h.1V18.867l-.097-.002c-.659-.015-1.136-.21-1.447-.569-.313-.362-.478-.912-.478-1.675v-5.695c0-.763.165-1.316.478-1.678.311-.36.788-.553 1.447-.57l.098-.002V7.583Z" stroke-width=".2"/>
</svg>
