<svg width="193" height="25" fill="none" xmlns="http://www.w3.org/2000/svg"><path fill-rule="evenodd" clip-rule="evenodd" d="M11.032 1.2c0-.644.522-1.166 1.167-1.166h4.965c.645 0 1.167.522 1.167 1.167v1.663c0 .644.523 1.167 1.167 1.167h4.672c.645 0 1.167.522 1.167 1.167v4.17c0 .645-.522 1.167-1.167 1.167h-1.663c-.644 0-1.167.523-1.167 1.167v4.966c0 .644.523 1.167 1.167 1.167h1.663c.645 0 1.167.522 1.167 1.167v4.17c0 .645-.522 1.167-1.167 1.167H5.193a1.167 1.167 0 0 1-1.167-1.166v-4.171c0-.645-.523-1.167-1.167-1.167H1.196a1.167 1.167 0 0 1-1.167-1.167v-4.966c0-.644.522-1.167 1.167-1.167h1.663c.644 0 1.167-.522 1.167-1.167v-4.17c0-.645.522-1.167 1.167-1.167h4.672c.644 0 1.167-.523 1.167-1.167V1.2Z" fill="#7E858B" style="fill:color(display-p3 .4941 .5216 .5451);fill-opacity:1"/><path d="M11.812 7.583v-.1h-.1c-1.004 0-1.805.27-2.389.818l.069.073-.069-.073c-.588.552-.873 1.402-.873 2.528v5.886c0 1.125.285 1.975.873 2.528.584.55 1.385.818 2.389.818h.1V18.867l-.098-.002c-.66-.015-1.138-.21-1.448-.569-.312-.362-.478-.912-.478-1.675v-5.695c0-.763.165-1.316.478-1.678.311-.36.788-.553 1.448-.57l.098-.002V7.583ZM15.502 7.583v-.1h-.1c-1.004 0-1.804.27-2.389.818-.59.552-.874 1.402-.874 2.528v5.886c0 1.125.286 1.975.874 2.528.585.55 1.385.818 2.389.818h.1V18.867l-.098-.002c-.66-.015-1.137-.21-1.448-.569-.313-.362-.478-.912-.478-1.675v-5.695c0-.765.155-1.316.472-1.677.317-.36.794-.55 1.455-.57l.097-.004V7.583ZM19.19 7.583v-.1h-.1c-1.002 0-1.802.27-2.387.818-.589.552-.874 1.402-.874 2.528v5.886c0 1.125.285 1.975.874 2.528.586.55 1.386.818 2.387.818h.1V18.867l-.097-.002c-.659-.015-1.136-.21-1.447-.569-.313-.362-.478-.912-.478-1.675v-5.695c0-.763.165-1.316.478-1.678.311-.36.788-.553 1.447-.57l.098-.002V7.583Z" fill="#13171A" stroke="#13171A" style="fill:color(display-p3 .0745 .0902 .102);fill-opacity:1;stroke:color(display-p3 .0745 .0902 .102);stroke-opacity:1" stroke-width=".2"/><path d="M190.76 18.743V17.09a3.405 3.405 0 0 1-1.261 1.384c-.537.331-1.15.497-1.839.497a4.422 4.422 0 0 1-2.439-.703 5.144 5.144 0 0 1-1.695-1.902 5.298 5.298 0 0 1-.62-2.5c0-.923.207-1.77.62-2.542a4.754 4.754 0 0 1 1.716-1.86 4.483 4.483 0 0 1 2.418-.682c.689 0 1.302.165 1.839.496.538.33.958.792 1.261 1.384V4.07h1.695v14.674h-1.695Zm-3.059-1.426c.978 0 1.729-.31 2.253-.93.537-.634.806-1.46.806-2.48 0-1.033-.269-1.867-.806-2.5-.524-.648-1.275-.972-2.253-.972-.951 0-1.708.324-2.273.971-.551.634-.827 1.447-.827 2.439s.276 1.819.827 2.48c.551.662 1.309.992 2.273.992ZM172.703 9.03h1.715v1.653c.179-.441.517-.868 1.013-1.281.51-.414 1.226-.62 2.149-.62 1.103 0 1.95.392 2.542 1.178.607.771.91 1.777.91 3.017v5.766h-1.716V13.39c0-.854-.192-1.557-.578-2.108-.372-.565-.937-.847-1.695-.847-.84 0-1.488.303-1.943.91-.454.592-.682 1.39-.682 2.397v5.001h-1.715V9.03ZM170.435 18.743h-1.694V17.09c-.18.427-.524.847-1.034 1.26-.496.414-1.205.62-2.129.62-1.102 0-1.956-.385-2.562-1.157-.593-.785-.889-1.798-.889-3.038V9.03h1.715v5.332c0 .854.186 1.564.558 2.129.386.55.958.826 1.716.826.84 0 1.488-.296 1.943-.889.454-.606.682-1.412.682-2.418V9.03h1.694v9.713ZM155.49 18.97c-.924 0-1.75-.234-2.481-.702a4.948 4.948 0 0 1-1.715-1.86 5.298 5.298 0 0 1-.62-2.501c0-.937.2-1.791.599-2.563a4.762 4.762 0 0 1 1.716-1.86c.744-.468 1.577-.702 2.501-.702.909 0 1.722.227 2.438.682a4.604 4.604 0 0 1 1.695 1.86c.413.771.62 1.619.62 2.542 0 .882-.207 1.715-.62 2.5-.4.786-.964 1.42-1.695 1.902-.716.468-1.529.703-2.438.703Zm0-1.653c.95 0 1.694-.33 2.232-.992.537-.661.806-1.488.806-2.48 0-1.006-.269-1.826-.806-2.46-.538-.633-1.282-.95-2.232-.95-.979 0-1.743.324-2.295.971-.537.648-.806 1.481-.806 2.501 0 .978.276 1.791.827 2.439.551.647 1.309.971 2.274.971ZM144.346 18.743V9.03h1.715v1.736c.317-.62.717-1.089 1.199-1.406.482-.317 1.116-.475 1.901-.475.262 0 .517.041.765.124v1.695a3.4 3.4 0 0 0-.827-.104c-2.025 0-3.038 1.275-3.038 3.824v4.32h-1.715ZM132.509 13.866c0-.923.207-1.77.62-2.542a4.754 4.754 0 0 1 1.716-1.86 4.483 4.483 0 0 1 2.418-.682c.689 0 1.302.165 1.839.496.538.33.958.792 1.261 1.384V9.03h1.715v10.168c0 3.004-1.605 4.505-4.815 4.505-1.447 0-2.556-.365-3.328-1.095-.771-.73-1.185-1.646-1.24-2.749h1.736c.055.69.317 1.247.786 1.674.468.427 1.15.641 2.046.641 2.067 0 3.1-.992 3.1-2.976V17.09a3.405 3.405 0 0 1-1.261 1.384c-.537.331-1.15.497-1.839.497a4.422 4.422 0 0 1-2.439-.703 5.144 5.144 0 0 1-1.695-1.902 5.298 5.298 0 0 1-.62-2.5Zm1.716-.021c0 .992.275 1.819.826 2.48.551.662 1.309.992 2.274.992.978 0 1.729-.31 2.253-.93.523-.634.785-1.46.785-2.48 0-1.033-.269-1.867-.806-2.5-.524-.648-1.268-.972-2.232-.972-.951 0-1.709.324-2.274.971-.551.634-.826 1.447-.826 2.439ZM122.222 9.009h1.756l2.935 7.605 2.935-7.605h1.777l-5.745 14.694h-1.736l1.901-4.96-3.823-9.734ZM119.272 18.743V17.09a3.412 3.412 0 0 1-1.261 1.384c-.537.331-1.15.497-1.839.497a4.422 4.422 0 0 1-2.439-.703 5.136 5.136 0 0 1-1.695-1.902 5.298 5.298 0 0 1-.62-2.5c0-.923.207-1.77.62-2.542a4.754 4.754 0 0 1 1.716-1.86 4.483 4.483 0 0 1 2.418-.682c.689 0 1.302.165 1.839.496.537.33.958.792 1.261 1.384V9.03h1.695v9.713h-1.695Zm-3.059-1.426c.978 0 1.729-.31 2.253-.93.537-.634.806-1.46.806-2.48 0-1.033-.269-1.867-.806-2.5-.524-.648-1.275-.972-2.253-.972-.951 0-1.708.324-2.273.971-.551.634-.827 1.447-.827 2.439s.276 1.819.827 2.48c.551.662 1.309.992 2.273.992ZM106.182 4.07h1.716v11.118c0 .758.11 1.296.33 1.612.234.304.634.455 1.199.455.22 0 .551-.034.992-.103v1.57c-.469.097-.93.145-1.385.145-.909 0-1.612-.24-2.108-.723-.482-.496-.73-1.295-.744-2.398V4.07ZM96.35 23.703h-1.715V9.03h1.715v1.632a3.41 3.41 0 0 1 1.261-1.384c.537-.331 1.15-.496 1.84-.496.881 0 1.687.227 2.418.682a4.752 4.752 0 0 1 1.715 1.86c.413.771.62 1.619.62 2.542 0 .882-.207 1.715-.62 2.5a5.068 5.068 0 0 1-1.715 1.902 4.325 4.325 0 0 1-2.418.703c-.69 0-1.302-.166-1.84-.497a3.41 3.41 0 0 1-1.26-1.384v6.613Zm.786-7.316c.523.62 1.274.93 2.252.93.965 0 1.723-.33 2.274-.992.551-.661.827-1.488.827-2.48s-.283-1.805-.848-2.439c-.551-.647-1.302-.971-2.253-.971-.964 0-1.715.324-2.252.971-.524.634-.786 1.468-.786 2.501 0 1.02.262 1.846.786 2.48ZM79.414 9.009h1.756l2.935 7.605L87.04 9.01h1.777l-5.745 14.694h-1.736l1.901-4.96-3.823-9.734ZM72.553 9.03h.434c.538 0 .903-.118 1.096-.352.192-.234.289-.572.289-1.013V5.867h1.57V9.03h2.398v1.55h-2.397v4.608c0 .772.117 1.31.351 1.612.234.304.648.455 1.24.455.276 0 .654-.034 1.137-.103v1.591c-.51.083-.992.124-1.447.124-1.02 0-1.777-.255-2.273-.765-.483-.523-.724-1.364-.724-2.52V10.58h-1.674V9.03ZM70.138 6.632c-.358 0-.661-.124-.91-.372a1.237 1.237 0 0 1-.371-.91c0-.358.124-.66.372-.909.248-.248.551-.372.91-.372.358 0 .654.124.888.372.248.248.372.551.372.91 0 .358-.124.661-.372.91a1.17 1.17 0 0 1-.889.371ZM69.27 9.01h1.716v9.734H69.27V9.01ZM62.12 18.743V9.03h1.716v1.736c.316-.62.716-1.089 1.198-1.406.482-.317 1.116-.475 1.902-.475.261 0 .516.041.764.124v1.695a3.396 3.396 0 0 0-.826-.104c-2.026 0-3.038 1.275-3.038 3.824v4.32H62.12ZM58.158 18.743V17.09a3.41 3.41 0 0 1-1.261 1.384c-.538.331-1.15.497-1.84.497a4.423 4.423 0 0 1-2.438-.703 5.133 5.133 0 0 1-1.695-1.902 5.293 5.293 0 0 1-.62-2.5c0-.923.207-1.77.62-2.542a4.753 4.753 0 0 1 1.715-1.86 4.485 4.485 0 0 1 2.418-.682c.69 0 1.302.165 1.84.496.537.33.958.792 1.26 1.384V9.03h1.695v9.713h-1.694Zm-3.06-1.426c.98 0 1.73-.31 2.254-.93.537-.634.806-1.46.806-2.48 0-1.033-.27-1.867-.806-2.5-.524-.648-1.275-.972-2.253-.972-.95 0-1.709.324-2.274.971-.55.634-.826 1.447-.826 2.439s.275 1.819.826 2.48c.551.662 1.31.992 2.274.992ZM45.068 4.07h1.715v11.118c0 .758.11 1.296.33 1.612.235.304.635.455 1.2.455.22 0 .55-.034.992-.103v1.57a6.85 6.85 0 0 1-1.385.145c-.91 0-1.612-.24-2.108-.723-.482-.496-.73-1.295-.744-2.398V4.07ZM41.353 12.44c-.083-.62-.337-1.11-.765-1.468-.427-.372-1.06-.558-1.901-.558-.62 0-1.15.166-1.591.496a3.03 3.03 0 0 0-1.013 1.282 4.101 4.101 0 0 0-.352 1.694c0 .951.262 1.764.786 2.44.537.674 1.295 1.012 2.273 1.012.662 0 1.22-.159 1.674-.476.455-.316.758-.764.91-1.343h1.715a3.881 3.881 0 0 1-.723 1.757 4.007 4.007 0 0 1-1.53 1.24c-.633.303-1.357.455-2.17.455-.84 0-1.619-.235-2.335-.703a5.134 5.134 0 0 1-1.695-1.902 5.253 5.253 0 0 1-.62-2.48c0-.909.2-1.75.6-2.521a5.03 5.03 0 0 1 1.673-1.88 4.218 4.218 0 0 1 2.357-.703c1.405 0 2.466.35 3.182 1.054.73.702 1.144 1.57 1.24 2.604h-1.715Z" fill="#F7F8F9" style="fill:color(display-p3 .9686 .9725 .9765);fill-opacity:1"/></svg>
